<svg width="220" height="50" viewBox="0 0 220 50" fill="none" xmlns="http://www.w3.org/2000/svg">
  <g clipPath="url(#clip0_8_183)">
    <path d="M-0.0600586 7.01968C0.315291 6.9208 0.681967 6.74893 1.03972 6.5993C3.56772 5.54268 6.05422 4.37837 8.55459 3.25927L16.0043 -0.0324836C16.5892 -0.288734 17.1645 -0.555521 17.7771 -0.739746L17.8117 -0.710596C17.7271 0.222129 17.7761 1.18899 17.7761 2.12545L17.7771 7.01968C16.9122 7.24543 15.786 7.92105 14.9496 8.3213L8.94234 11.1968V23.8347C6.92972 22.8848 4.93822 21.8882 2.94759 20.8933C1.95497 20.4099 0.965841 19.8599 -0.0600586 19.4527V7.01968Z" fill="#FFFFFF"/>
    <path d="M22.2314 7.01968V-0.739746C22.8886 -0.543246 23.5502 -0.223984 24.1792 0.0532789L38.1736 6.19968C38.8021 6.47343 39.4264 6.76568 40.0628 7.01968V22.0652C39.6987 22.3228 39.2801 22.5226 38.8882 22.7361L36.8698 23.8347C35.1379 24.8691 32.8336 26.2188 31.0663 27.0257V11.0837C30.2866 10.7657 29.5358 10.3923 28.7732 10.0369L24.4047 7.99643C23.7062 7.67343 22.9766 7.20918 22.2314 7.01968Z" fill="#FFFFFF"/>
    <path d="M13.321 14.1256C14.5413 13.4922 16.5088 12.439 17.7773 11.9956L17.8143 12.0254C17.7556 12.577 17.7758 13.1402 17.7771 13.6945L17.7773 23.8346C17.189 23.8364 16.6035 23.9392 16.0218 24.0175L13.321 24.389L13.2805 24.3566L13.321 14.1256Z" fill="#FFFFFF"/>
    <path d="M22.2313 23.4032C22.2008 22.141 22.2313 20.8714 22.2314 19.6082L22.2313 11.9956C23.6663 12.4471 25.2763 13.434 26.719 14.0267L26.7222 24.3812C26.726 24.7802 26.7692 25.223 26.719 25.6175C25.5827 25.1999 23.2491 24.0084 22.2313 23.4032Z" fill="#FFFFFF"/>
    <path d="M20.0079 49.4448C19.5979 49.3182 19.2042 49.0582 18.8238 48.8615L9.85155 44.2816C7.7868 43.2031 6.10955 42.3922 4.43405 40.7161C2.18055 38.4617 0.495753 35.7675 0.0471404 32.5383C-0.10706 31.4283 -0.0604849 30.2915 -0.0606849 29.1738L-0.0598475 24.5488C0.637427 24.8605 1.3168 25.2132 2.00505 25.5442L7.6943 28.299C10.2389 29.511 9.3813 29.5546 12.1863 29.2236L15.6276 28.7965C16.2221 28.7236 20.5484 28.1375 20.8706 28.2027C21.2948 28.2887 21.7121 28.6301 22.1021 28.8187C24.2287 29.8476 26.3071 30.9661 28.4164 32.0285C30.3767 33.0157 30.3753 32.8215 32.1554 31.8065L37.0231 29.129C38.0368 28.5707 39.0332 27.988 40.0628 27.4581L40.0642 30.2088C40.0639 33.9191 39.0859 36.5836 36.6643 39.5291C34.7022 41.885 33.4488 42.4265 30.8634 43.8137L21.9331 48.5162C21.3381 48.8323 20.6484 49.2502 20.0079 49.4448ZM23.4306 32.6645C22.7258 32.847 22.2407 33.3988 22.4926 34.1568C22.6716 34.6961 23.4243 35.0063 23.8788 35.264L25.4601 36.1518C26.2093 36.5731 27.8382 37.7625 28.6897 37.6797C29.3703 37.5568 29.8158 37.0653 29.6716 36.348C29.4928 35.4592 27.1608 34.5218 26.3707 34.0757L24.7852 33.1726C24.3457 32.9233 23.9608 32.6201 23.4306 32.6645ZM20.0079 36.4426C19.0646 36.7033 18.5854 37.8491 19.3009 38.4431C19.8644 38.911 21.0251 39.4516 21.7078 39.8308C22.4902 40.2655 24.1867 41.4901 24.9958 41.4352C25.6804 41.2845 26.0902 40.6758 25.9379 39.983C25.7633 39.1891 23.0919 37.9311 22.3628 37.5083C21.7441 37.1496 20.7582 36.3385 20.0079 36.4426ZM16.8138 40.258C16.0552 40.3921 15.5867 40.9615 15.7461 41.7453C15.9167 42.5838 17.6888 43.2818 18.3829 43.6822C19.0412 44.062 19.7183 44.684 20.5133 44.6873C21.2266 44.5838 21.7089 44.0452 21.5772 43.2995C21.4236 42.4303 19.7246 41.7343 19.0351 41.3343C18.4252 40.9803 17.5387 40.2627 16.8138 40.258Z" fill="#FFFFFF"/>
  </g>
  <path d="M59.892 37H54.484V14.12H60.212L72.116 31.976H69.748V14.12H75.156V37H69.428L57.524 19.144H59.892V37ZM87.525 37.512C85.6903 37.512 84.069 37.1493 82.661 36.424C81.2743 35.6773 80.1863 34.6533 79.397 33.352C78.629 32.0293 78.245 30.5253 78.245 28.84C78.245 27.1333 78.629 25.6293 79.397 24.328C80.1863 23.0267 81.2743 22.0133 82.661 21.288C84.069 20.5413 85.6903 20.168 87.525 20.168C89.3597 20.168 90.9703 20.5413 92.357 21.288C93.765 22.0133 94.853 23.0267 95.621 24.328C96.4103 25.6293 96.805 27.1333 96.805 28.84C96.805 30.5253 96.4103 32.0293 95.621 33.352C94.853 34.6533 93.765 35.6773 92.357 36.424C90.9703 37.1493 89.3597 37.512 87.525 37.512ZM87.525 33.096C88.2717 33.096 88.9223 32.9147 89.477 32.552C90.0317 32.1893 90.4583 31.688 90.757 31.048C91.077 30.408 91.237 29.672 91.237 28.84C91.237 28.008 91.077 27.272 90.757 26.632C90.4583 25.992 90.0317 25.4907 89.477 25.128C88.9223 24.7653 88.2717 24.584 87.525 24.584C86.7997 24.584 86.149 24.7653 85.573 25.128C85.0183 25.4907 84.581 25.992 84.261 26.632C83.9623 27.272 83.813 28.008 83.813 28.84C83.813 29.672 83.9623 30.408 84.261 31.048C84.581 31.688 85.0183 32.1893 85.573 32.552C86.149 32.9147 86.7997 33.096 87.525 33.096ZM109.296 37H104.08L97.1675 20.68H102.704L107.216 33.032H106.256L110.8 20.68H116.208L109.296 37ZM132.91 37H128.078V33.672L127.79 33.384V27.24C127.79 26.2373 127.459 25.48 126.798 24.968C126.158 24.456 125.272 24.2 124.142 24.2C123.288 24.2 122.478 24.3493 121.71 24.648C120.942 24.9467 120.27 25.3733 119.694 25.928L117.134 22.728C117.987 21.9387 119.054 21.32 120.334 20.872C121.635 20.4027 123 20.168 124.43 20.168C126.115 20.168 127.587 20.4347 128.846 20.968C130.126 21.5013 131.118 22.2907 131.822 23.336C132.547 24.36 132.91 25.6293 132.91 27.144V37ZM122.958 37.512C121.699 37.512 120.579 37.288 119.598 36.84C118.638 36.3707 117.891 35.7307 117.358 34.92C116.824 34.1093 116.558 33.16 116.558 32.072C116.558 30.9627 116.888 30.0133 117.549 29.224C118.211 28.4347 119.16 27.8267 120.398 27.4C121.635 26.952 123.096 26.728 124.782 26.728H128.238V29.992H125.102C124.142 29.992 123.384 30.1627 122.83 30.504C122.296 30.8453 122.03 31.2933 122.03 31.848C122.03 32.3813 122.243 32.808 122.67 33.128C123.118 33.448 123.683 33.608 124.366 33.608C125.027 33.608 125.635 33.4587 126.19 33.16C126.744 32.8613 127.192 32.456 127.534 31.944C127.896 31.432 128.11 30.856 128.174 30.216L129.55 30.792C129.55 32.136 129.272 33.32 128.718 34.344C128.184 35.3467 127.416 36.1253 126.414 36.68C125.432 37.2347 124.28 37.512 122.958 37.512ZM136.297 37V14.12H144.681C147.219 14.12 149.427 14.6107 151.305 15.592C153.203 16.552 154.675 17.896 155.721 19.624C156.766 21.3307 157.289 23.304 157.289 25.544C157.289 27.784 156.766 29.768 155.721 31.496C154.675 33.2027 153.203 34.5467 151.305 35.528C149.427 36.5093 147.219 37 144.681 37H136.297ZM141.801 32.424H144.681C146.089 32.424 147.294 32.1467 148.297 31.592C149.321 31.016 150.11 30.216 150.665 29.192C151.219 28.168 151.497 26.952 151.497 25.544C151.497 24.136 151.219 22.92 150.665 21.896C150.11 20.872 149.321 20.0827 148.297 19.528C147.294 18.9733 146.089 18.696 144.681 18.696H141.801V32.424ZM173.997 31.624L176.621 34.856C175.81 35.688 174.733 36.3387 173.389 36.808C172.066 37.2773 170.637 37.512 169.101 37.512C167.117 37.512 165.389 37.1493 163.917 36.424C162.445 35.6987 161.293 34.6853 160.461 33.384C159.65 32.0827 159.245 30.5787 159.245 28.872C159.245 27.144 159.64 25.6293 160.429 24.328C161.218 23.0053 162.285 21.9813 163.629 21.256C164.994 20.5307 166.509 20.168 168.173 20.168C169.816 20.168 171.277 20.5307 172.557 21.256C173.837 21.96 174.84 22.952 175.565 24.232C176.29 25.4907 176.653 26.9627 176.653 28.648V28.84H171.405V28.264C171.405 27.432 171.277 26.7173 171.021 26.12C170.765 25.5227 170.392 25.064 169.901 24.744C169.432 24.4027 168.845 24.232 168.141 24.232C167.458 24.232 166.85 24.4133 166.317 24.776C165.805 25.1173 165.4 25.6187 165.101 26.28C164.802 26.9413 164.653 27.7627 164.653 28.744C164.653 29.7893 164.856 30.664 165.261 31.368C165.666 32.0507 166.232 32.5627 166.957 32.904C167.682 33.2453 168.514 33.416 169.453 33.416C171.181 33.416 172.696 32.8187 173.997 31.624ZM176.653 30.408H162.477V27.272H176.109L176.653 28.68V30.408ZM193.716 31.624L196.34 34.856C195.529 35.688 194.452 36.3387 193.108 36.808C191.785 37.2773 190.356 37.512 188.82 37.512C186.836 37.512 185.108 37.1493 183.636 36.424C182.164 35.6987 181.012 34.6853 180.18 33.384C179.369 32.0827 178.964 30.5787 178.964 28.872C178.964 27.144 179.358 25.6293 180.148 24.328C180.937 23.0053 182.004 21.9813 183.348 21.256C184.713 20.5307 186.228 20.168 187.892 20.168C189.534 20.168 190.996 20.5307 192.276 21.256C193.556 21.96 194.558 22.952 195.284 24.232C196.009 25.4907 196.372 26.9627 196.372 28.648V28.84H191.124V28.264C191.124 27.432 190.996 26.7173 190.74 26.12C190.484 25.5227 190.11 25.064 189.62 24.744C189.15 24.4027 188.564 24.232 187.86 24.232C187.177 24.232 186.569 24.4133 186.036 24.776C185.524 25.1173 185.118 25.6187 184.82 26.28C184.521 26.9413 184.372 27.7627 184.372 28.744C184.372 29.7893 184.574 30.664 184.98 31.368C185.385 32.0507 185.95 32.5627 186.676 32.904C187.401 33.2453 188.233 33.416 189.172 33.416C190.9 33.416 192.414 32.8187 193.716 31.624ZM196.372 30.408H182.196V27.272H195.828L196.372 28.68V30.408ZM217.147 37H211.771V33.512L211.739 33.16V28.712C211.739 27.8373 211.579 27.1013 211.259 26.504C210.939 25.8853 210.491 25.416 209.915 25.096C209.36 24.7547 208.72 24.584 207.995 24.584C207.227 24.584 206.555 24.7653 205.979 25.128C205.424 25.4907 204.997 25.992 204.699 26.632C204.4 27.272 204.251 28.008 204.251 28.84C204.251 29.6507 204.411 30.3867 204.731 31.048C205.072 31.688 205.541 32.1893 206.139 32.552C206.736 32.9147 207.429 33.096 208.219 33.096C208.837 33.096 209.403 32.9893 209.915 32.776C210.427 32.5413 210.853 32.2213 211.195 31.816C211.557 31.3893 211.792 30.8987 211.899 30.344L213.115 30.856C213.115 32.072 212.869 33.192 212.379 34.216C211.888 35.2187 211.163 36.0187 210.203 36.616C209.264 37.2133 208.101 37.512 206.715 37.512C205.285 37.512 203.952 37.1493 202.715 36.424C201.499 35.6987 200.517 34.6853 199.771 33.384C199.045 32.0827 198.683 30.568 198.683 28.84C198.683 27.0907 199.045 25.576 199.771 24.296C200.517 22.9947 201.499 21.9813 202.715 21.256C203.952 20.5307 205.296 20.168 206.747 20.168C208.027 20.168 209.104 20.4133 209.979 20.904C210.875 21.3947 211.579 22.0667 212.091 22.92C212.603 23.7733 212.912 24.744 213.019 25.832H211.739V13.96H217.147V37Z" fill="#FFFFFF"/>
  <defs>
    <clipPath id="clip0_8_183">
      <rect width="40" height="50" fill="white"/>
    </clipPath>
  </defs>
</svg> 